<svg xmlns="http://www.w3.org/2000/svg" viewBox="0 0 2048 2048"><defs><style>.a{fill:#1A42F4;}.b{fill:#fff;stroke:#fff;stroke-miterlimit:10;stroke-width:64px;}</style></defs><title>inclushe_v2_logo_smaller</title><rect class="a" width="2048" height="2048"/><path class="b" d="M416.46,635.72,545.27,417.63a3.32,3.32,0,0,1,2.86-1.63H1628.68a3.3,3.3,0,0,1,2.86,5L1502.73,639.07a3.32,3.32,0,0,1-2.86,1.63H419.32A3.3,3.3,0,0,1,416.46,635.72Z"/><path class="b" d="M416.46,1627l128.81-218.09a3.32,3.32,0,0,1,2.86-1.63H1628.68a3.3,3.3,0,0,1,2.86,5l-128.81,218.09a3.32,3.32,0,0,1-2.86,1.63H419.32A3.3,3.3,0,0,1,416.46,1627Z"/><path class="b" d="M708.43,1131.37,837.24,913.28a3.32,3.32,0,0,1,2.86-1.63h503.25a3.3,3.3,0,0,1,2.86,5L1217.4,1134.72a3.32,3.32,0,0,1-2.86,1.63H711.29A3.3,3.3,0,0,1,708.43,1131.37Z"/></svg>
